<mxfile host="app.diagrams.net" agent="Mozilla/5.0 (Windows NT 10.0; Win64; x64) AppleWebKit/537.36 (KHTML, like Gecko) Chrome/138.0.0.0 Safari/537.36" version="27.2.0">
  <diagram name="Page-1" id="8YTi8R2OJQij593uJ9vZ">
    <mxGraphModel dx="2526" dy="743" grid="1" gridSize="10" guides="1" tooltips="1" connect="1" arrows="1" fold="1" page="1" pageScale="1" pageWidth="1100" pageHeight="850" background="none" math="0" shadow="0">
      <root>
        <mxCell id="0" />
        <mxCell id="1" parent="0" />
        <mxCell id="wk0uPVLoEB1xz0a90ST6-6" value="" style="edgeStyle=orthogonalEdgeStyle;rounded=0;orthogonalLoop=1;jettySize=auto;html=1;" parent="1" source="wk0uPVLoEB1xz0a90ST6-2" target="wk0uPVLoEB1xz0a90ST6-5" edge="1">
          <mxGeometry relative="1" as="geometry" />
        </mxCell>
        <mxCell id="wk0uPVLoEB1xz0a90ST6-2" value="Start" style="rounded=1;whiteSpace=wrap;html=1;" parent="1" vertex="1">
          <mxGeometry x="320" y="90" width="120" height="60" as="geometry" />
        </mxCell>
        <mxCell id="wk0uPVLoEB1xz0a90ST6-8" value="" style="edgeStyle=orthogonalEdgeStyle;rounded=0;orthogonalLoop=1;jettySize=auto;html=1;entryX=0.392;entryY=0.083;entryDx=0;entryDy=0;entryPerimeter=0;" parent="1" source="wk0uPVLoEB1xz0a90ST6-5" target="wk0uPVLoEB1xz0a90ST6-16" edge="1">
          <mxGeometry relative="1" as="geometry">
            <mxPoint x="570" y="560" as="targetPoint" />
          </mxGeometry>
        </mxCell>
        <mxCell id="wk0uPVLoEB1xz0a90ST6-9" value="YES" style="edgeLabel;html=1;align=center;verticalAlign=middle;resizable=0;points=[];" parent="wk0uPVLoEB1xz0a90ST6-8" vertex="1" connectable="0">
          <mxGeometry x="0.3364" y="1" relative="1" as="geometry">
            <mxPoint as="offset" />
          </mxGeometry>
        </mxCell>
        <mxCell id="wk0uPVLoEB1xz0a90ST6-11" value="" style="edgeStyle=orthogonalEdgeStyle;rounded=0;orthogonalLoop=1;jettySize=auto;html=1;" parent="1" source="wk0uPVLoEB1xz0a90ST6-5" target="wk0uPVLoEB1xz0a90ST6-28" edge="1">
          <mxGeometry relative="1" as="geometry">
            <mxPoint x="170" y="300" as="targetPoint" />
          </mxGeometry>
        </mxCell>
        <mxCell id="wk0uPVLoEB1xz0a90ST6-12" value="No" style="edgeLabel;html=1;align=center;verticalAlign=middle;resizable=0;points=[];" parent="wk0uPVLoEB1xz0a90ST6-11" vertex="1" connectable="0">
          <mxGeometry x="0.3909" y="1" relative="1" as="geometry">
            <mxPoint as="offset" />
          </mxGeometry>
        </mxCell>
        <mxCell id="wk0uPVLoEB1xz0a90ST6-5" value="Initial Conversation Router" style="whiteSpace=wrap;html=1;rounded=1;fillColor=#1ba1e2;fontColor=#ffffff;strokeColor=#006EAF;" parent="1" vertex="1">
          <mxGeometry x="320" y="170" width="120" height="60" as="geometry" />
        </mxCell>
        <mxCell id="wk0uPVLoEB1xz0a90ST6-13" value="&lt;blockquote style=&quot;margin: 0 0 0 40px; border: none; padding: 0px;&quot;&gt;&lt;font style=&quot;font-size: 13px;&quot;&gt;State&lt;/font&gt;&lt;div&gt;&lt;font style=&quot;font-size: 13px;&quot;&gt;messages&lt;/font&gt;&lt;/div&gt;&lt;div&gt;&lt;font style=&quot;font-size: 13px;&quot;&gt;personalityTraitsCovered&lt;/font&gt;&lt;/div&gt;&lt;div&gt;&lt;font style=&quot;font-size: 13px;&quot;&gt;currentpersonalityTrait&lt;/font&gt;&lt;/div&gt;&lt;div&gt;&lt;font style=&quot;font-size: 13px;&quot;&gt;isMessageApproved&lt;/font&gt;&lt;/div&gt;&lt;div&gt;&lt;font style=&quot;font-size: 13px;&quot;&gt;messageFeedback&lt;br&gt;&lt;/font&gt;&lt;/div&gt;&lt;div&gt;&lt;font style=&quot;font-size: 13px;&quot;&gt;isConversationFinished&lt;/font&gt;&lt;/div&gt;&lt;div&gt;&lt;span style=&quot;font-size: 13px;&quot;&gt;facetwiseConversations&lt;/span&gt;&lt;/div&gt;&lt;/blockquote&gt;" style="rounded=0;whiteSpace=wrap;html=1;align=left;" parent="1" vertex="1">
          <mxGeometry x="550" y="10" width="260" height="170" as="geometry" />
        </mxCell>
        <mxCell id="wk0uPVLoEB1xz0a90ST6-18" style="edgeStyle=orthogonalEdgeStyle;rounded=0;orthogonalLoop=1;jettySize=auto;html=1;" parent="1" source="wk0uPVLoEB1xz0a90ST6-16" target="wk0uPVLoEB1xz0a90ST6-17" edge="1">
          <mxGeometry relative="1" as="geometry" />
        </mxCell>
        <mxCell id="wk0uPVLoEB1xz0a90ST6-16" value="generate initial message" style="whiteSpace=wrap;html=1;rounded=1;" parent="1" vertex="1">
          <mxGeometry x="530" y="280" width="120" height="60" as="geometry" />
        </mxCell>
        <mxCell id="wk0uPVLoEB1xz0a90ST6-20" value="" style="edgeStyle=orthogonalEdgeStyle;rounded=0;orthogonalLoop=1;jettySize=auto;html=1;" parent="1" source="wk0uPVLoEB1xz0a90ST6-17" target="wk0uPVLoEB1xz0a90ST6-19" edge="1">
          <mxGeometry relative="1" as="geometry" />
        </mxCell>
        <mxCell id="wk0uPVLoEB1xz0a90ST6-17" value="initialize State&lt;div&gt;&lt;br&gt;&lt;/div&gt;&lt;div&gt;messages&amp;nbsp;&lt;br&gt;&lt;br&gt;&amp;nbsp;current personality trait&lt;br&gt;&lt;br&gt;&lt;span style=&quot;font-size: 13px; text-align: left;&quot;&gt;personalityTraitsCovered&lt;/span&gt;&lt;div&gt;&lt;span style=&quot;font-size: 13px; text-align: left;&quot;&gt;&lt;br&gt;isConversation finished&lt;br&gt;&lt;br&gt;facetwiseConversations&lt;/span&gt;&lt;/div&gt;&lt;/div&gt;" style="whiteSpace=wrap;html=1;rounded=1;" parent="1" vertex="1">
          <mxGeometry x="461.25" y="390" width="257.5" height="190" as="geometry" />
        </mxCell>
        <mxCell id="wk0uPVLoEB1xz0a90ST6-19" value="END" style="ellipse;whiteSpace=wrap;html=1;rounded=1;" parent="1" vertex="1">
          <mxGeometry x="550" y="650" width="80" height="80" as="geometry" />
        </mxCell>
        <mxCell id="wk0uPVLoEB1xz0a90ST6-32" value="" style="edgeStyle=orthogonalEdgeStyle;rounded=0;orthogonalLoop=1;jettySize=auto;html=1;" parent="1" source="wk0uPVLoEB1xz0a90ST6-28" target="wk0uPVLoEB1xz0a90ST6-31" edge="1">
          <mxGeometry relative="1" as="geometry" />
        </mxCell>
        <mxCell id="wk0uPVLoEB1xz0a90ST6-28" value="&lt;br&gt;Check if previous message denied = true&lt;br&gt;&lt;br&gt;get the feed back&lt;br&gt;&lt;br&gt;&lt;br&gt;Generate Next Message with the feedback&lt;br&gt;&lt;br&gt;else just generate message&lt;br&gt;&lt;br&gt;set&lt;br&gt;currentMessage&lt;div&gt;&lt;br&gt;&lt;/div&gt;" style="whiteSpace=wrap;html=1;rounded=1;" parent="1" vertex="1">
          <mxGeometry x="-5" y="240" width="310" height="220" as="geometry" />
        </mxCell>
        <mxCell id="szUIF5HS3QZgCzVZO76R-2" value="" style="edgeStyle=orthogonalEdgeStyle;rounded=0;orthogonalLoop=1;jettySize=auto;html=1;" parent="1" source="wk0uPVLoEB1xz0a90ST6-31" target="szUIF5HS3QZgCzVZO76R-1" edge="1">
          <mxGeometry relative="1" as="geometry" />
        </mxCell>
        <mxCell id="wk0uPVLoEB1xz0a90ST6-31" value="Evaluate The Message&lt;br&gt;generate message feedback if not not approved" style="whiteSpace=wrap;html=1;rounded=1;" parent="1" vertex="1">
          <mxGeometry x="80" y="560" width="140" height="90" as="geometry" />
        </mxCell>
        <mxCell id="szUIF5HS3QZgCzVZO76R-6" style="edgeStyle=orthogonalEdgeStyle;rounded=0;orthogonalLoop=1;jettySize=auto;html=1;entryX=0.966;entryY=0.972;entryDx=0;entryDy=0;entryPerimeter=0;" parent="1" source="szUIF5HS3QZgCzVZO76R-1" target="wk0uPVLoEB1xz0a90ST6-28" edge="1">
          <mxGeometry relative="1" as="geometry">
            <mxPoint x="300" y="635" as="targetPoint" />
            <Array as="points">
              <mxPoint x="150" y="850" />
              <mxPoint x="300" y="850" />
              <mxPoint x="300" y="454" />
            </Array>
          </mxGeometry>
        </mxCell>
        <mxCell id="szUIF5HS3QZgCzVZO76R-7" value="NotApproved" style="edgeLabel;html=1;align=center;verticalAlign=middle;resizable=0;points=[];" parent="szUIF5HS3QZgCzVZO76R-6" vertex="1" connectable="0">
          <mxGeometry x="-0.0495" y="2" relative="1" as="geometry">
            <mxPoint x="1" as="offset" />
          </mxGeometry>
        </mxCell>
        <mxCell id="szUIF5HS3QZgCzVZO76R-25" style="edgeStyle=orthogonalEdgeStyle;rounded=0;orthogonalLoop=1;jettySize=auto;html=1;entryX=0.5;entryY=0;entryDx=0;entryDy=0;" parent="1" source="szUIF5HS3QZgCzVZO76R-1" target="szUIF5HS3QZgCzVZO76R-8" edge="1">
          <mxGeometry relative="1" as="geometry">
            <mxPoint x="150" y="920" as="targetPoint" />
          </mxGeometry>
        </mxCell>
        <mxCell id="szUIF5HS3QZgCzVZO76R-27" value="approved" style="edgeLabel;html=1;align=center;verticalAlign=middle;resizable=0;points=[];" parent="szUIF5HS3QZgCzVZO76R-25" vertex="1" connectable="0">
          <mxGeometry x="-0.01" y="-3" relative="1" as="geometry">
            <mxPoint as="offset" />
          </mxGeometry>
        </mxCell>
        <mxCell id="szUIF5HS3QZgCzVZO76R-1" value="Evaluator Message Router" style="whiteSpace=wrap;html=1;rounded=1;fillColor=#1ba1e2;fontColor=#ffffff;strokeColor=#006EAF;" parent="1" vertex="1">
          <mxGeometry x="90" y="750" width="120" height="60" as="geometry" />
        </mxCell>
        <mxCell id="szUIF5HS3QZgCzVZO76R-12" value="" style="edgeStyle=orthogonalEdgeStyle;rounded=0;orthogonalLoop=1;jettySize=auto;html=1;" parent="1" source="szUIF5HS3QZgCzVZO76R-8" target="szUIF5HS3QZgCzVZO76R-11" edge="1">
          <mxGeometry relative="1" as="geometry" />
        </mxCell>
        <mxCell id="szUIF5HS3QZgCzVZO76R-8" value="IsConversationCompleted&lt;br&gt;set it to true otherise false" style="whiteSpace=wrap;html=1;rounded=1;" parent="1" vertex="1">
          <mxGeometry x="27.5" y="910" width="245" height="70" as="geometry" />
        </mxCell>
        <mxCell id="szUIF5HS3QZgCzVZO76R-16" value="" style="edgeStyle=orthogonalEdgeStyle;rounded=0;orthogonalLoop=1;jettySize=auto;html=1;" parent="1" source="szUIF5HS3QZgCzVZO76R-11" target="szUIF5HS3QZgCzVZO76R-15" edge="1">
          <mxGeometry relative="1" as="geometry" />
        </mxCell>
        <mxCell id="szUIF5HS3QZgCzVZO76R-17" value="Yes" style="edgeLabel;html=1;align=center;verticalAlign=middle;resizable=0;points=[];" parent="szUIF5HS3QZgCzVZO76R-16" vertex="1" connectable="0">
          <mxGeometry x="-0.2684" y="1" relative="1" as="geometry">
            <mxPoint as="offset" />
          </mxGeometry>
        </mxCell>
        <mxCell id="szUIF5HS3QZgCzVZO76R-11" value="ConversationCompleteRouter&lt;div&gt;&lt;br/&gt;&lt;/div&gt;" style="whiteSpace=wrap;html=1;rounded=1;fillColor=#1ba1e2;fontColor=#ffffff;strokeColor=#006EAF;" parent="1" vertex="1">
          <mxGeometry x="55" y="1040" width="190" height="50" as="geometry" />
        </mxCell>
        <mxCell id="szUIF5HS3QZgCzVZO76R-31" value="" style="edgeStyle=orthogonalEdgeStyle;rounded=0;orthogonalLoop=1;jettySize=auto;html=1;" parent="1" source="szUIF5HS3QZgCzVZO76R-15" target="szUIF5HS3QZgCzVZO76R-30" edge="1">
          <mxGeometry relative="1" as="geometry" />
        </mxCell>
        <mxCell id="szUIF5HS3QZgCzVZO76R-15" value="&lt;div&gt;Generate facetwise marking and summary&lt;br&gt;and save it as markdown&lt;/div&gt;&lt;div&gt;&lt;br&gt;&lt;/div&gt;&lt;div&gt;&lt;br&gt;add current personality traits to the personality traits covered&lt;br&gt;&lt;br&gt;set next personality trait&lt;div&gt;set isConversationFinished to false&lt;/div&gt;&lt;/div&gt;" style="whiteSpace=wrap;html=1;rounded=1;" parent="1" vertex="1">
          <mxGeometry x="15" y="1220" width="270" height="190" as="geometry" />
        </mxCell>
        <mxCell id="szUIF5HS3QZgCzVZO76R-30" value="END" style="ellipse;whiteSpace=wrap;html=1;rounded=1;" parent="1" vertex="1">
          <mxGeometry x="80" y="1450" width="140" height="145" as="geometry" />
        </mxCell>
        <mxCell id="szUIF5HS3QZgCzVZO76R-35" style="edgeStyle=orthogonalEdgeStyle;rounded=0;orthogonalLoop=1;jettySize=auto;html=1;entryX=0.991;entryY=0.601;entryDx=0;entryDy=0;entryPerimeter=0;" parent="1" source="szUIF5HS3QZgCzVZO76R-11" target="szUIF5HS3QZgCzVZO76R-30" edge="1">
          <mxGeometry relative="1" as="geometry">
            <Array as="points">
              <mxPoint x="150" y="1120" />
              <mxPoint x="450" y="1120" />
              <mxPoint x="450" y="1530" />
              <mxPoint x="219" y="1530" />
            </Array>
          </mxGeometry>
        </mxCell>
        <mxCell id="szUIF5HS3QZgCzVZO76R-36" value="NO" style="edgeLabel;html=1;align=center;verticalAlign=middle;resizable=0;points=[];" parent="szUIF5HS3QZgCzVZO76R-35" vertex="1" connectable="0">
          <mxGeometry x="-0.1362" y="1" relative="1" as="geometry">
            <mxPoint as="offset" />
          </mxGeometry>
        </mxCell>
      </root>
    </mxGraphModel>
  </diagram>
</mxfile>
